<svg width="33" height="32" viewBox="0 0 33 32" fill="none" xmlns="http://www.w3.org/2000/svg">
<path fill-rule="evenodd" clip-rule="evenodd" d="M9.76562 5.33317C9.412 5.33317 9.07286 5.47365 8.82282 5.72369C8.57277 5.97374 8.43229 6.31288 8.43229 6.6665V25.3332C8.43229 25.6868 8.57277 26.0259 8.82282 26.276C9.07286 26.526 9.412 26.6665 9.76562 26.6665H23.099C23.4526 26.6665 23.7917 26.526 24.0418 26.276C24.2918 26.0259 24.4323 25.6868 24.4323 25.3332V12.5521L17.2135 5.33331L9.76562 5.33317ZM6.9372 3.83808C7.68734 3.08793 8.70476 2.6665 9.76562 2.6665H17.2136C17.9207 2.66665 18.5991 2.94765 19.0991 3.44769M19.0991 3.44769L26.3176 10.6662C26.3176 10.6662 26.3177 10.6663 26.3176 10.6662C26.8177 11.1662 27.0988 11.8444 27.099 12.5516V25.3332C27.099 26.394 26.6775 27.4115 25.9274 28.1616C25.1772 28.9117 24.1598 29.3332 23.099 29.3332H9.76562C8.70476 29.3332 7.68734 28.9117 6.9372 28.1616C6.18705 27.4115 5.76562 26.394 5.76562 25.3332V6.6665C5.76562 5.60564 6.18705 4.58822 6.9372 3.83808M11.099 15.9998C11.099 15.2635 11.6959 14.6665 12.4323 14.6665H20.4323C21.1687 14.6665 21.7656 15.2635 21.7656 15.9998C21.7656 16.7362 21.1687 17.3332 20.4323 17.3332H12.4323C11.6959 17.3332 11.099 16.7362 11.099 15.9998ZM11.099 21.3332C11.099 20.5968 11.6959 19.9998 12.4323 19.9998H20.4323C21.1687 19.9998 21.7656 20.5968 21.7656 21.3332C21.7656 22.0696 21.1687 22.6665 20.4323 22.6665H12.4323C11.6959 22.6665 11.099 22.0696 11.099 21.3332Z" fill="#25324B"></path>
<rect x="11.0938" y="14.6665" width="10.6667" height="2.66667" rx="1.33333" fill="#25324B"></rect>
<rect x="11.0938" y="20" width="10.6667" height="2.66667" rx="1.33333" fill="#25324B"></rect>
</svg>