<svg width="33" height="32" viewBox="0 0 33 32" fill="none" xmlns="http://www.w3.org/2000/svg">
<path fill-rule="evenodd" clip-rule="evenodd" d="M16.5729 6.66667C15.8657 6.66667 15.1874 6.94762 14.6873 7.44772C14.1872 7.94781 13.9062 8.62609 13.9062 9.33333C13.9062 10.0406 14.1872 10.7189 14.6873 11.219C15.1874 11.719 15.8657 12 16.5729 12C17.2802 12 17.9584 11.719 18.4585 11.219C18.9586 10.7189 19.2396 10.0406 19.2396 9.33333C19.2396 8.62609 18.9586 7.94781 18.4585 7.44772C17.9584 6.94762 17.2802 6.66667 16.5729 6.66667ZM12.8017 5.5621C13.8019 4.5619 15.1584 4 16.5729 4C17.9874 4 19.344 4.5619 20.3442 5.5621C21.3443 6.56229 21.9062 7.91885 21.9062 9.33333C21.9062 10.7478 21.3443 12.1044 20.3442 13.1046C19.344 14.1048 17.9874 14.6667 16.5729 14.6667C15.1584 14.6667 13.8019 14.1048 12.8017 13.1046C11.8015 12.1044 11.2396 10.7478 11.2396 9.33333C11.2396 7.91885 11.8015 6.56229 12.8017 5.5621ZM7.23958 12C6.88596 12 6.54682 12.1405 6.29677 12.3905C6.04673 12.6406 5.90625 12.9797 5.90625 13.3333C5.90625 13.687 6.04673 14.0261 6.29677 14.2761C6.54682 14.5262 6.88596 14.6667 7.23958 14.6667C7.5932 14.6667 7.93234 14.5262 8.18239 14.2761C8.43244 14.0261 8.57292 13.687 8.57292 13.3333C8.57292 12.9797 8.43244 12.6406 8.18239 12.3905C7.93234 12.1405 7.5932 12 7.23958 12ZM4.41116 10.5049C5.1613 9.75476 6.17872 9.33333 7.23958 9.33333C8.30045 9.33333 9.31786 9.75476 10.068 10.5049C10.8182 11.2551 11.2396 12.2725 11.2396 13.3333C11.2396 14.3942 10.8182 15.4116 10.068 16.1618C9.31786 16.9119 8.30045 17.3333 7.23958 17.3333C6.17872 17.3333 5.1613 16.9119 4.41116 16.1618C3.66101 15.4116 3.23958 14.3942 3.23958 13.3333C3.23958 12.2725 3.66101 11.2551 4.41116 10.5049ZM25.9062 12C25.5526 12 25.2135 12.1405 24.9634 12.3905C24.7134 12.6406 24.5729 12.9797 24.5729 13.3333C24.5729 13.687 24.7134 14.0261 24.9634 14.2761C25.2135 14.5262 25.5526 14.6667 25.9062 14.6667C26.2599 14.6667 26.599 14.5262 26.8491 14.2761C27.0991 14.0261 27.2396 13.687 27.2396 13.3333C27.2396 12.9797 27.0991 12.6406 26.8491 12.3905C26.599 12.1405 26.2599 12 25.9062 12ZM23.0778 10.5049C23.828 9.75476 24.8454 9.33333 25.9062 9.33333C26.9671 9.33333 27.9845 9.75476 28.7347 10.5049C29.4848 11.2551 29.9062 12.2725 29.9062 13.3333C29.9062 14.3942 29.4848 15.4116 28.7347 16.1618C27.9845 16.9119 26.9671 17.3333 25.9062 17.3333C24.8454 17.3333 23.828 16.9119 23.0778 16.1618C22.3277 15.4116 21.9062 14.3942 21.9062 13.3333C21.9062 12.2725 22.3277 11.2551 23.0778 10.5049ZM16.5729 18.6657C15.5066 18.6657 14.4647 18.9852 13.5817 19.583C12.7493 20.1465 12.094 20.9328 11.6898 21.8505L11.3683 25.3333H21.7775L21.456 21.8505C21.0518 20.9328 20.3965 20.1465 19.5641 19.583C18.6811 18.9852 17.6392 18.6657 16.5729 18.6657ZM24.5729 25.3333H28.5729V24.0001C28.5729 24.0001 28.5729 24.0001 28.5729 24.0001C28.5729 23.4459 28.4002 22.9055 28.0788 22.454C27.7575 22.0025 27.3034 21.6623 26.7798 21.4808C26.2562 21.2992 25.689 21.2853 25.1571 21.441C24.8415 21.5334 24.5475 21.6828 24.289 21.88C24.4745 22.5567 24.5729 23.268 24.5729 24V25.3333ZM23.1459 19.4368C22.5862 18.6309 21.8801 17.9305 21.059 17.3747C19.7347 16.4782 18.1721 15.9991 16.5729 15.9991C14.9737 15.9991 13.4111 16.4782 12.0868 17.3747C11.2658 17.9305 10.5596 18.6309 9.9999 19.4368C9.60725 19.1993 9.18335 19.0121 8.73778 18.8817C7.67403 18.5704 6.5397 18.5982 5.49247 18.9612C4.44525 19.3243 3.53716 20.0047 2.89445 20.9077C2.25174 21.8107 1.90633 22.8915 1.90625 23.9999V26.6667C1.90625 27.403 2.5032 28 3.23958 28H29.9062C30.6426 28 31.2396 27.403 31.2396 26.6667V24C31.2395 22.8916 30.8941 21.8107 30.2514 20.9077C29.6087 20.0047 28.7006 19.3243 27.6534 18.9612C26.6061 18.5982 25.4718 18.5704 24.408 18.8817C23.9625 19.0121 23.5386 19.1993 23.1459 19.4368ZM8.85685 21.88C8.59831 21.6828 8.30437 21.5334 7.98868 21.441C7.45681 21.2853 6.88964 21.2992 6.36603 21.4808C5.84242 21.6623 5.38837 22.0025 5.06702 22.454C4.74568 22.9055 4.57298 23.4458 4.57292 24C4.57292 24 4.57292 24 4.57292 24V25.3333H8.57292V24C8.57292 23.268 8.67136 22.5567 8.85685 21.88Z" fill="#25324B"></path>
</svg>