<svg width="33" height="32" viewBox="0 0 33 32" fill="none" xmlns="http://www.w3.org/2000/svg">
<path d="M14.0557 5.756C14.6237 3.41467 17.9544 3.41467 18.5224 5.756C18.6076 6.10773 18.7747 6.43437 19.01 6.70933C19.2453 6.98429 19.5422 7.19981 19.8766 7.33833C20.2109 7.47685 20.5733 7.53447 20.9341 7.50649C21.2949 7.47852 21.6441 7.36574 21.9531 7.17733C24.0104 5.924 26.3664 8.27867 25.1131 10.3373C24.9249 10.6462 24.8123 10.9951 24.7844 11.3557C24.7565 11.7163 24.8141 12.0784 24.9524 12.4125C25.0908 12.7467 25.306 13.0434 25.5807 13.2787C25.8553 13.514 26.1816 13.6812 26.5331 13.7667C28.8744 14.3347 28.8744 17.6653 26.5331 18.2333C26.1813 18.3186 25.8547 18.4856 25.5797 18.7209C25.3048 18.9563 25.0893 19.2532 24.9507 19.5875C24.8122 19.9219 24.7546 20.2842 24.7826 20.645C24.8105 21.0059 24.9233 21.355 25.1117 21.664C26.3651 23.7213 24.0104 26.0773 21.9517 24.824C21.6429 24.6359 21.2939 24.5233 20.9334 24.4954C20.5728 24.4674 20.2107 24.525 19.8766 24.6634C19.5424 24.8017 19.2456 25.017 19.0103 25.2916C18.775 25.5663 18.6079 25.8926 18.5224 26.244C17.9544 28.5853 14.6237 28.5853 14.0557 26.244C13.9705 25.8923 13.8034 25.5656 13.5681 25.2907C13.3328 25.0157 13.0359 24.8002 12.7015 24.6617C12.3672 24.5232 12.0048 24.4655 11.644 24.4935C11.2832 24.5215 10.9341 24.6343 10.6251 24.8227C8.56773 26.076 6.21173 23.7213 7.46506 21.6627C7.6532 21.3538 7.7658 21.0049 7.79371 20.6443C7.82162 20.2837 7.76405 19.9216 7.62569 19.5875C7.48733 19.2533 7.27208 18.9566 6.99743 18.7213C6.72278 18.486 6.39648 18.3188 6.04506 18.2333C3.70373 17.6653 3.70373 14.3347 6.04506 13.7667C6.3968 13.6814 6.72343 13.5144 6.9984 13.2791C7.27336 13.0437 7.48887 12.7468 7.62739 12.4125C7.76591 12.0781 7.82353 11.7158 7.79555 11.355C7.76758 10.9941 7.6548 10.645 7.4664 10.336C6.21306 8.27867 8.56773 5.92267 10.6264 7.176C11.9544 7.98667 13.6877 7.26933 14.0557 5.756Z" stroke="#25324B" stroke-width="2" stroke-linecap="round" stroke-linejoin="round"></path>
<path d="M20.2891 16C20.2891 17.0609 19.8676 18.0783 19.1175 18.8284C18.3673 19.5786 17.3499 20 16.2891 20C15.2282 20 14.2108 19.5786 13.4606 18.8284C12.7105 18.0783 12.2891 17.0609 12.2891 16C12.2891 14.9391 12.7105 13.9217 13.4606 13.1716C14.2108 12.4214 15.2282 12 16.2891 12C17.3499 12 18.3673 12.4214 19.1175 13.1716C19.8676 13.9217 20.2891 14.9391 20.2891 16V16Z" stroke="#25324B" stroke-width="2" stroke-linecap="round" stroke-linejoin="round"></path>
</svg>